<mxfile host="app.diagrams.net" modified="2023-08-21T09:07:23.531Z" agent="Mozilla/5.0 (Windows NT 10.0; Win64; x64) AppleWebKit/537.36 (KHTML, like Gecko) Chrome/115.0.0.0 Safari/537.36" etag="TjgdFDB4iVe7Xz0U6MR-" version="21.6.8" type="device">
  <diagram name="페이지-1" id="3waXsfUu0mHB2VVSHDpd">
    <mxGraphModel dx="1050" dy="542" grid="1" gridSize="10" guides="1" tooltips="1" connect="1" arrows="1" fold="1" page="1" pageScale="1" pageWidth="827" pageHeight="1169" math="0" shadow="0">
      <root>
        <mxCell id="0" />
        <mxCell id="1" parent="0" />
        <mxCell id="JMalo2s1iwdfcL1rjgwg-51" value="" style="rounded=0;whiteSpace=wrap;html=1;fontSize=17;" parent="1" vertex="1">
          <mxGeometry x="20" width="820" height="650" as="geometry" />
        </mxCell>
        <mxCell id="JMalo2s1iwdfcL1rjgwg-4" value="" style="rounded=0;whiteSpace=wrap;html=1;fontSize=17;" parent="1" vertex="1">
          <mxGeometry x="210" y="45" width="590" height="540" as="geometry" />
        </mxCell>
        <mxCell id="JMalo2s1iwdfcL1rjgwg-29" style="edgeStyle=orthogonalEdgeStyle;rounded=0;orthogonalLoop=1;jettySize=auto;html=1;endArrow=none;endFill=0;fontSize=17;" parent="1" target="JMalo2s1iwdfcL1rjgwg-15" edge="1">
          <mxGeometry relative="1" as="geometry">
            <mxPoint x="120" y="110" as="sourcePoint" />
          </mxGeometry>
        </mxCell>
        <mxCell id="JMalo2s1iwdfcL1rjgwg-1" value="비회원" style="shape=umlActor;verticalLabelPosition=bottom;verticalAlign=top;html=1;outlineConnect=0;fontSize=17;" parent="1" vertex="1">
          <mxGeometry x="90" y="80" width="30" height="60" as="geometry" />
        </mxCell>
        <mxCell id="JMalo2s1iwdfcL1rjgwg-6" value="로그인 한다" style="ellipse;whiteSpace=wrap;html=1;fontSize=17;" parent="1" vertex="1">
          <mxGeometry x="330" y="380" width="120" height="80" as="geometry" />
        </mxCell>
        <mxCell id="JMalo2s1iwdfcL1rjgwg-26" style="edgeStyle=orthogonalEdgeStyle;rounded=0;orthogonalLoop=1;jettySize=auto;html=1;horizontal=1;endArrow=none;endFill=0;fontSize=17;entryX=0;entryY=0.5;entryDx=0;entryDy=0;" parent="1" target="JMalo2s1iwdfcL1rjgwg-21" edge="1">
          <mxGeometry relative="1" as="geometry">
            <mxPoint x="120" y="270" as="sourcePoint" />
            <Array as="points">
              <mxPoint x="120" y="271" />
              <mxPoint x="260" y="271" />
              <mxPoint x="260" y="230" />
            </Array>
          </mxGeometry>
        </mxCell>
        <mxCell id="JMalo2s1iwdfcL1rjgwg-8" value="회원" style="shape=umlActor;verticalLabelPosition=bottom;verticalAlign=top;html=1;outlineConnect=0;fontSize=17;" parent="1" vertex="1">
          <mxGeometry x="90" y="240" width="30" height="60" as="geometry" />
        </mxCell>
        <mxCell id="JMalo2s1iwdfcL1rjgwg-15" value="회원가입 한다" style="ellipse;whiteSpace=wrap;html=1;fontSize=17;" parent="1" vertex="1">
          <mxGeometry x="330" y="70" width="120" height="80" as="geometry" />
        </mxCell>
        <mxCell id="JMalo2s1iwdfcL1rjgwg-16" value="&#39;마이페이지&#39;&lt;br&gt;사용한다" style="ellipse;whiteSpace=wrap;html=1;fontSize=17;" parent="1" vertex="1">
          <mxGeometry x="540" y="470" width="120" height="80" as="geometry" />
        </mxCell>
        <mxCell id="JMalo2s1iwdfcL1rjgwg-17" value="&#39;내사진&#39;&lt;br&gt;사용한다" style="ellipse;whiteSpace=wrap;html=1;fontSize=17;" parent="1" vertex="1">
          <mxGeometry x="590" y="380" width="120" height="80" as="geometry" />
        </mxCell>
        <mxCell id="JMalo2s1iwdfcL1rjgwg-18" value="파일 업로드&lt;br&gt;처리 한다" style="ellipse;whiteSpace=wrap;html=1;fontSize=17;" parent="1" vertex="1">
          <mxGeometry x="650" y="110" width="120" height="80" as="geometry" />
        </mxCell>
        <mxCell id="JMalo2s1iwdfcL1rjgwg-20" value="실시간&lt;br&gt;처리 한다" style="ellipse;whiteSpace=wrap;html=1;fontSize=17;" parent="1" vertex="1">
          <mxGeometry x="650" y="220" width="120" height="80" as="geometry" />
        </mxCell>
        <mxCell id="JMalo2s1iwdfcL1rjgwg-21" value="지문 비식별화&lt;br&gt;한다" style="ellipse;whiteSpace=wrap;html=1;fontSize=17;" parent="1" vertex="1">
          <mxGeometry x="350" y="190" width="120" height="80" as="geometry" />
        </mxCell>
        <mxCell id="JMalo2s1iwdfcL1rjgwg-9" value="소셜회원" style="shape=umlActor;verticalLabelPosition=bottom;verticalAlign=top;html=1;outlineConnect=0;fontSize=17;" parent="1" vertex="1">
          <mxGeometry x="90" y="400" width="30" height="60" as="geometry" />
        </mxCell>
        <mxCell id="JMalo2s1iwdfcL1rjgwg-42" style="edgeStyle=orthogonalEdgeStyle;rounded=0;orthogonalLoop=1;jettySize=auto;html=1;startArrow=none;startFill=0;endArrow=none;endFill=0;entryX=0;entryY=0.5;entryDx=0;entryDy=0;fontSize=17;" parent="1" target="JMalo2s1iwdfcL1rjgwg-6" edge="1">
          <mxGeometry relative="1" as="geometry">
            <mxPoint x="120" y="270" as="sourcePoint" />
            <mxPoint x="400" y="390" as="targetPoint" />
            <Array as="points">
              <mxPoint x="120" y="271" />
              <mxPoint x="260" y="271" />
              <mxPoint x="260" y="420" />
            </Array>
          </mxGeometry>
        </mxCell>
        <mxCell id="JMalo2s1iwdfcL1rjgwg-43" value="&amp;lt;&amp;lt;extend&amp;gt;&amp;gt;" style="endArrow=open;dashed=1;html=1;strokeWidth=2;rounded=0;entryX=1;entryY=0.5;entryDx=0;entryDy=0;startArrow=none;startFill=0;endFill=0;exitX=0;exitY=0.5;exitDx=0;exitDy=0;fontSize=17;" parent="1" source="JMalo2s1iwdfcL1rjgwg-20" target="JMalo2s1iwdfcL1rjgwg-21" edge="1">
          <mxGeometry width="50" height="50" relative="1" as="geometry">
            <mxPoint x="442.55999999999995" y="328.4" as="sourcePoint" />
            <mxPoint x="419.55999999999995" y="300.4" as="targetPoint" />
          </mxGeometry>
        </mxCell>
        <mxCell id="JMalo2s1iwdfcL1rjgwg-45" value="&amp;lt;&amp;lt;extend&amp;gt;&amp;gt;" style="endArrow=open;dashed=1;html=1;strokeWidth=2;rounded=0;startArrow=none;startFill=0;endFill=0;exitX=0.007;exitY=0.61;exitDx=0;exitDy=0;fontSize=17;exitPerimeter=0;" parent="1" source="JMalo2s1iwdfcL1rjgwg-18" edge="1">
          <mxGeometry width="50" height="50" relative="1" as="geometry">
            <mxPoint x="630" y="310" as="sourcePoint" />
            <mxPoint x="470" y="230" as="targetPoint" />
          </mxGeometry>
        </mxCell>
        <mxCell id="JMalo2s1iwdfcL1rjgwg-46" value="" style="endArrow=none;html=1;rounded=0;entryX=0.083;entryY=0.25;entryDx=0;entryDy=0;fontSize=17;entryPerimeter=0;" parent="1" source="JMalo2s1iwdfcL1rjgwg-1" target="JMalo2s1iwdfcL1rjgwg-21" edge="1">
          <mxGeometry width="50" height="50" relative="1" as="geometry">
            <mxPoint x="410" y="340" as="sourcePoint" />
            <mxPoint x="460" y="290" as="targetPoint" />
            <Array as="points">
              <mxPoint x="260" y="110" />
              <mxPoint x="260" y="170" />
              <mxPoint x="260" y="210" />
            </Array>
          </mxGeometry>
        </mxCell>
        <mxCell id="JMalo2s1iwdfcL1rjgwg-50" value="" style="endArrow=block;html=1;rounded=0;exitX=0.5;exitY=0;exitDx=0;exitDy=0;exitPerimeter=0;endFill=0;fontSize=17;" parent="1" source="JMalo2s1iwdfcL1rjgwg-9" edge="1">
          <mxGeometry width="50" height="50" relative="1" as="geometry">
            <mxPoint x="410" y="420" as="sourcePoint" />
            <mxPoint x="105" y="320" as="targetPoint" />
          </mxGeometry>
        </mxCell>
        <mxCell id="g5nidxJxrtTuWH9GtFte-1" value="&amp;lt;&amp;lt;include&amp;gt;&amp;gt;" style="endArrow=open;dashed=1;html=1;strokeWidth=2;rounded=0;startArrow=none;startFill=0;endFill=0;exitX=0;exitY=0.5;exitDx=0;exitDy=0;fontSize=17;" parent="1" source="JMalo2s1iwdfcL1rjgwg-17" target="JMalo2s1iwdfcL1rjgwg-6" edge="1">
          <mxGeometry width="50" height="50" relative="1" as="geometry">
            <mxPoint x="660" y="280" as="sourcePoint" />
            <mxPoint x="450" y="420" as="targetPoint" />
          </mxGeometry>
        </mxCell>
        <mxCell id="g5nidxJxrtTuWH9GtFte-2" value="&amp;lt;&amp;lt;include&amp;gt;&amp;gt;" style="endArrow=open;dashed=1;html=1;strokeWidth=2;rounded=0;startArrow=none;startFill=0;endFill=0;fontSize=17;" parent="1" source="JMalo2s1iwdfcL1rjgwg-16" edge="1">
          <mxGeometry width="50" height="50" relative="1" as="geometry">
            <mxPoint x="540" y="480" as="sourcePoint" />
            <mxPoint x="450" y="420" as="targetPoint" />
          </mxGeometry>
        </mxCell>
        <mxCell id="nA1X38Zikv9h-4eln4w9-1" value="로그아웃한다" style="ellipse;whiteSpace=wrap;html=1;fontSize=17;" vertex="1" parent="1">
          <mxGeometry x="530" y="285" width="120" height="80" as="geometry" />
        </mxCell>
        <mxCell id="nA1X38Zikv9h-4eln4w9-2" value="&amp;lt;&amp;lt;include&amp;gt;&amp;gt;" style="endArrow=open;dashed=1;html=1;strokeWidth=2;rounded=0;startArrow=none;startFill=0;endFill=0;fontSize=17;exitX=0;exitY=1;exitDx=0;exitDy=0;" edge="1" parent="1" source="nA1X38Zikv9h-4eln4w9-1">
          <mxGeometry width="50" height="50" relative="1" as="geometry">
            <mxPoint x="571" y="465" as="sourcePoint" />
            <mxPoint x="450" y="420" as="targetPoint" />
          </mxGeometry>
        </mxCell>
      </root>
    </mxGraphModel>
  </diagram>
</mxfile>
